<?xml version="1.0" encoding="utf-8"?>
<!-- Generator: Adobe Illustrator 23.0.0, SVG Export Plug-In . SVG Version: 6.00 Build 0)  -->
<svg version="1.1" id="Ebene_1" xmlns="http://www.w3.org/2000/svg" xmlns:xlink="http://www.w3.org/1999/xlink" x="0px" y="0px"
	 viewBox="0 0 97.5 16.3" style="enable-background:new 0 0 97.5 16.3;" xml:space="preserve">
<style type="text/css">
	.st0{fill:#23FF6D;}
</style>
<path class="st0" d="M8.2,3.2L5.9,6.3H3.8l2.3-3.2L3.9,0H6L8.2,3.2z M2.2,3.2h2.1L2.1,6.3l2.3,3.2H2.3L0,6.3L2.2,3.2z"/>
<path class="st0" d="M93.5,9.5v2h-4.7v-2H93.5z"/>
<path d="M16.5,5.3v4.1h-2V5.6c0-0.8-0.5-1.2-1.2-1.2c-0.7,0-1.3,0.4-1.3,1.4v3.7h-2V0h2v3.3c0.4-0.5,1-0.8,1.9-0.8
	C15.3,2.5,16.5,3.5,16.5,5.3z"/>
<path d="M22.8,2.7v0.6c-0.4-0.5-1.1-0.8-2-0.8c-1.8,0-3.2,1.6-3.2,3.6s1.5,3.6,3.2,3.6c0.9,0,1.6-0.3,2-0.8v0.6h2V2.7H22.8z
	 M21.2,7.7c-0.9,0-1.6-0.6-1.6-1.6c0-1,0.7-1.6,1.6-1.6s1.6,0.6,1.6,1.6C22.8,7.1,22.1,7.7,21.2,7.7z"/>
<path d="M26,6.1c0-2,1.5-3.6,3.6-3.6c1.3,0,2.5,0.7,3.1,1.7l-1.8,1c-0.2-0.5-0.7-0.8-1.3-0.8c-0.9,0-1.5,0.6-1.5,1.6
	s0.6,1.6,1.5,1.6c0.6,0,1.1-0.3,1.3-0.8l1.8,1C32,9,30.9,9.6,29.6,9.6C27.5,9.6,26,8.1,26,6.1z"/>
<polygon points="37.6,9.5 35.4,6.5 35.4,9.5 33.4,9.5 33.4,0 35.4,0 35.4,5.7 37.5,2.7 39.8,2.7 37.4,6.1 39.9,9.5 "/>
<path d="M21.6,13.3c0-0.1,0.1-0.2,0.2-0.2c0.1,0,0.2,0.1,0.2,0.2c0,0.1-0.1,0.2-0.2,0.2C21.6,13.5,21.6,13.4,21.6,13.3z"/>
<rect x="21.6" y="14" width="0.2" height="2.3"/>
<path d="M24,15.7c0,0.4-0.3,0.6-0.8,0.6c-0.5,0-0.7-0.2-0.9-0.5l0.2-0.1c0.1,0.2,0.3,0.4,0.7,0.4c0.3,0,0.6-0.1,0.6-0.4
	c0-0.6-1.4-0.3-1.4-1.1c0-0.4,0.3-0.6,0.8-0.6c0.4,0,0.6,0.2,0.8,0.5l-0.2,0.1c-0.1-0.2-0.3-0.3-0.6-0.3c-0.3,0-0.5,0.2-0.5,0.4
	C22.6,15.2,24,14.9,24,15.7z"/>
<path d="M25.5,13.3c0-0.1,0.1-0.2,0.2-0.2c0.1,0,0.2,0.1,0.2,0.2c0,0.1-0.1,0.2-0.2,0.2C25.6,13.5,25.5,13.4,25.5,13.3z"/>
<rect x="25.5" y="14" width="0.2" height="2.3"/>
<path d="M28.3,14.9v1.4h-0.2v-1.4c0-0.4-0.2-0.7-0.7-0.7c-0.4,0-0.8,0.3-0.8,0.9v1.2h-0.2V14h0.2v0.4c0.2-0.3,0.5-0.5,0.8-0.5
	C27.9,14,28.3,14.3,28.3,14.9z"/>
<path d="M30.4,14.3v1.5c0,0.4,0.2,0.4,0.7,0.4v0.2c-0.6,0.1-0.9-0.1-0.9-0.6v-1.5h-0.5V14h0.5v-0.6l0.2-0.1V14h0.7v0.2H30.4z"/>
<path d="M33.5,14.9v1.4h-0.2v-1.4c0-0.4-0.2-0.7-0.7-0.7c-0.4,0-0.8,0.3-0.8,0.9v1.2h-0.2v-3.2h0.2v1.3c0.2-0.3,0.5-0.5,0.8-0.5
	C33.1,14,33.5,14.3,33.5,14.9z"/>
<path d="M36.1,15.2c0-0.6-0.4-1.2-1.1-1.2c-0.7,0-1.2,0.5-1.2,1.2c0,0.7,0.5,1.2,1.2,1.2c0.4,0,0.8-0.2,1-0.5l-0.2-0.1
	c-0.1,0.2-0.4,0.4-0.8,0.4c-0.5,0-0.9-0.3-1-0.8h2C36.1,15.2,36.1,15.2,36.1,15.2z M34.1,15.1c0-0.5,0.4-0.9,0.9-0.9
	c0.4,0,0.8,0.3,0.9,0.9H34.1z"/>
<path d="M39.7,14v0.5c-0.2-0.3-0.5-0.6-1-0.6c-0.6,0-1.2,0.5-1.2,1.2c0,0.7,0.5,1.2,1.2,1.2c0.4,0,0.8-0.2,1-0.6v0.5h0.2V14H39.7z
	 M38.7,16.1c-0.5,0-1-0.4-1-1c0-0.5,0.4-1,1-1c0.5,0,1,0.4,1,1C39.7,15.7,39.3,16.1,38.7,16.1z"/>
<path d="M40.4,13.3c0-0.1,0.1-0.2,0.2-0.2c0.1,0,0.2,0.1,0.2,0.2c0,0.1-0.1,0.2-0.2,0.2C40.5,13.5,40.4,13.4,40.4,13.3z"/>
<rect x="40.5" y="14" width="0.2" height="2.3"/>
<path d="M42.3,14v0.2c-0.4,0-0.8,0.2-0.8,0.8v1.3h-0.2V14h0.2v0.4C41.7,14.1,42,14,42.3,14z"/>
<g>
	<path d="M48.3,6c0,2-1.5,3.6-3.3,3.6c-0.9,0-1.6-0.3-2-0.8v3.4h-2V2.6h2v0.6c0.5-0.5,1.1-0.8,2-0.8C46.8,2.4,48.3,4,48.3,6z
		 M46.3,6c0-1-0.7-1.7-1.6-1.7S43,5,43,6s0.7,1.7,1.6,1.7S46.3,7.1,46.3,6z"/>
	<path d="M56,5.3v4.2h-2V5.6c0-0.8-0.5-1.2-1.2-1.2c-0.8,0-1.3,0.4-1.3,1.4v3.7h-2v-9.6h2v3.4c0.4-0.5,1.1-0.8,2-0.8
		C54.8,2.4,56,3.4,56,5.3z"/>
	<path d="M57.1,6c0-2,1.6-3.6,3.6-3.6c2,0,3.6,1.6,3.6,3.6s-1.6,3.6-3.6,3.6C58.7,9.6,57.1,8.1,57.1,6z M62.3,6c0-1-0.7-1.6-1.6-1.6
		S59.1,5.1,59.1,6s0.7,1.6,1.6,1.6S62.3,7,62.3,6z"/>
	<path d="M72,5.3v4.2h-2V5.6c0-0.8-0.5-1.2-1.2-1.2c-0.8,0-1.3,0.4-1.3,1.4v3.7h-2V2.6h2v0.6c0.4-0.5,1.1-0.8,2-0.8
		C70.8,2.4,72,3.4,72,5.3z"/>
	<path d="M76.9,7.8c0.6,0,1-0.2,1.3-0.5l1.6,0.9c-0.7,0.9-1.7,1.4-3,1.4c-2.3,0-3.8-1.6-3.8-3.6s1.5-3.6,3.6-3.6
		c2,0,3.5,1.5,3.5,3.6c0,0.3,0,0.6-0.1,0.8h-4.8C75.5,7.6,76.1,7.8,76.9,7.8z M78.2,5.3c-0.2-0.8-0.8-1.1-1.4-1.1
		c-0.8,0-1.3,0.4-1.5,1.1H78.2z"/>
	<path d="M86.4,7.4c0,1.6-1.4,2.2-2.8,2.2c-1.4,0-2.4-0.5-2.9-1.6l1.8-1c0.2,0.5,0.6,0.8,1.2,0.8c0.5,0,0.7-0.2,0.7-0.4
		c0-0.8-3.4-0.4-3.4-2.7c0-1.5,1.3-2.2,2.7-2.2c1.1,0,2.1,0.5,2.7,1.5l-1.7,0.9c-0.2-0.4-0.5-0.6-0.9-0.6c-0.4,0-0.6,0.1-0.6,0.4
		C83,5.4,86.4,4.9,86.4,7.4z"/>
</g>
<g>
	<path d="M11.6,14l-1,2.3h-0.3l-1-2.3h0.2l0.8,2l0.9-2H11.6z"/>
	<path d="M11.8,15.2c0-0.7,0.5-1.2,1.2-1.2c0.7,0,1.2,0.5,1.2,1.2c0,0.7-0.5,1.2-1.2,1.2C12.3,16.3,11.8,15.8,11.8,15.2z M13.9,15.2
		c0-0.5-0.4-1-1-1c-0.5,0-1,0.4-1,1c0,0.5,0.4,1,1,1C13.5,16.1,13.9,15.7,13.9,15.2z"/>
	<path d="M14.6,13.3c0-0.1,0.1-0.2,0.2-0.2c0.1,0,0.2,0.1,0.2,0.2c0,0.1-0.1,0.2-0.2,0.2C14.7,13.5,14.6,13.4,14.6,13.3z M14.7,14
		h0.2v2.3h-0.2V14z"/>
	<path d="M15.4,15.2c0-0.7,0.5-1.2,1.2-1.2c0.4,0,0.8,0.2,1,0.6l-0.2,0.1c-0.1-0.3-0.4-0.5-0.8-0.5c-0.5,0-1,0.4-1,1
		c0,0.5,0.4,1,1,1c0.4,0,0.7-0.2,0.8-0.5l0.2,0.1c-0.2,0.3-0.6,0.6-1,0.6C15.9,16.3,15.4,15.8,15.4,15.2z"/>
	<path d="M20.2,15.2c0,0,0,0.1,0,0.1h-2c0.1,0.5,0.4,0.8,1,0.8c0.4,0,0.6-0.2,0.8-0.4l0.2,0.1c-0.2,0.3-0.5,0.5-1,0.5
		c-0.7,0-1.2-0.5-1.2-1.2c0-0.7,0.5-1.2,1.2-1.2C19.8,14,20.2,14.5,20.2,15.2z M18.2,15.1H20c0-0.5-0.4-0.9-0.9-0.9
		C18.6,14.2,18.2,14.6,18.2,15.1z"/>
</g>
</svg>
