<?xml version="1.0" encoding="utf-8"?>
<!-- Generator: Adobe Illustrator 23.0.1, SVG Export Plug-In . SVG Version: 6.00 Build 0)  -->
<svg version="1.1" id="Ebene_1" xmlns="http://www.w3.org/2000/svg" xmlns:xlink="http://www.w3.org/1999/xlink" x="0px" y="0px"
	 viewBox="0 0 79.38694 15.3377018" style="enable-background:new 0 0 79.38694 15.3377018;" xml:space="preserve">
<style type="text/css">
	.st0{fill:#FC8529;}
	.st1{fill:#009FE3;}
</style>
<path class="st0" d="M8.2018957,3.151211L5.9113264,6.3033023H3.7653606L6.0559301,3.151211L3.8916113,0h2.1459658
	L8.2018957,3.151211z M2.1643186,3.1516511h2.1459661l-2.1643188,3.151211l2.2905695,3.152092H2.2905695L0,6.3028622
	L2.1643186,3.1516511z"/>
<path class="st1" d="M79.38694,9.4549541v2.0260611h-4.6991196V9.4549541H79.38694z"/>
<path d="M16.4959297,5.3082371v4.1467171h-2.026062V5.605217c0-0.8381429-0.5257635-1.2297158-1.1747189-1.2297158
	c-0.7435493,0-1.256115,0.4333701-1.256115,1.3925047v3.6869483h-2.0260611V0h2.0260611v3.3349721
	c0.3651752-0.499366,1.0405293-0.8227439,1.931468-0.8227439C15.3344088,2.5122283,16.4959297,3.4845619,16.4959297,5.3082371z
	 M24.822361,2.7014153v6.7535391h-2.026062V8.8191977c-0.4465694,0.5147648-1.1087246,0.8249435-2.0128632,0.8249435
	c-1.7708778,0-3.2293777-1.5530939-3.2293777-3.5659566s1.4584999-3.5659564,3.2293777-3.5659564
	c0.9041386,0,1.5662937,0.3101788,2.0128632,0.8227439V2.7014153H24.822361z M22.796299,6.0781846
	c0-1.0141306-0.675354-1.6476874-1.6080894-1.6476874c-0.9327374,0-1.6080914,0.6335568-1.6080914,1.6476874
	c0,1.0119309,0.675354,1.6476874,1.6080914,1.6476874C22.120945,7.725872,22.796299,7.0901155,22.796299,6.0781846z
	 M25.9750824,6.0781846c0-2.0128627,1.5266953-3.5659564,3.579155-3.5659564c1.3111095,0,2.4726295,0.6885529,3.0533905,1.7290819
	l-1.7686787,1.0251298c-0.2309837-0.4729676-0.7171516-0.7545481-1.3111095-0.7545481
	c-0.8777409,0-1.5266972,0.6335564-1.5266972,1.5662928s0.6489563,1.5662928,1.5266972,1.5662928
	c0.5939579,0,1.0955238-0.2837806,1.3111095-0.7567482l1.7686787,1.0141306
	c-0.580761,1.0537286-1.7290821,1.7422814-3.0533905,1.7422814C27.5017776,9.6441412,25.9750824,8.0910473,25.9750824,6.0781846z
	 M37.6078873,9.4549541l-2.1602516-2.9851966v2.9851966h-2.026062V0h2.026062v5.6580133l2.0260582-2.956598h2.3648415
	l-2.4594345,3.3767693l2.5254288,3.3767695H37.6078873z M50.1096306,2.7014153l-2.1624489,6.7535391h-1.8918724
	l-1.0801277-3.6077538l-1.0801239,3.6077538h-1.8918724l-2.1602516-6.7535391h2.1602516l0.9723358,3.6187527l1.0537262-3.6187527
	h1.8918724l1.0537262,3.6187527l0.9723358-3.6187527H50.1096306z M54.0847588,7.8336644
	c0.5543633,0,1.0273323-0.2155852,1.2979126-0.5125647l1.6212883,0.9305358
	c-0.6621552,0.9195375-1.6608849,1.3925056-2.9455986,1.3925056c-2.3098412,0-3.7419434-1.5530939-3.7419434-3.5659566
	s1.4584999-3.5659564,3.5945549-3.5659564c1.9710655,0,3.4295654,1.5266955,3.4295654,3.5659564
	c0,0.2837806-0.0263977,0.5543618-0.0791931,0.8095446h-4.7956734C52.7208519,7.591681,53.3434105,7.8336644,54.0847588,7.8336644z
	 M55.3276749,5.3764324c-0.2155838-0.785346-0.8227425-1.0691266-1.4321022-1.0691266
	c-0.7699471,0-1.2825127,0.3783741-1.4716988,1.0691266H55.3276749z M61.8568306,7.8336644
	c0.5543594,0,1.0273285-0.2155852,1.2979088-0.5125647l1.6212921,0.9305358
	c-0.6621552,0.9195375-1.6608887,1.3925056-2.9456024,1.3925056c-2.3098412,0-3.7419434-1.5530939-3.7419434-3.5659566
	s1.4584999-3.5659564,3.5945549-3.5659564c1.9710655,0,3.4295692,1.5266955,3.4295692,3.5659564
	c0,0.2837806-0.0263977,0.5543618-0.081398,0.8095446h-4.7934723C60.4929237,7.591681,61.1154785,7.8336644,61.8568306,7.8336644z
	 M63.0997429,5.3764324c-0.2155838-0.785346-0.8227425-1.0691266-1.4321022-1.0691266
	c-0.7699471,0-1.2825127,0.3783741-1.4716988,1.0691266H63.0997429z M70.4516449,9.4549541l-2.1602554-2.9851966v2.9851966
	h-2.026062V0h2.026062v5.6580133l2.026062-2.956598h2.3648376l-2.4594345,3.3767693l2.5254288,3.3767695H70.4516449z
	 M11.9237471,13.8841286v1.4036026h-0.2300138v-1.4036026c0-0.4152021-0.2388334-0.6856346-0.6635885-0.6856346
	c-0.4416571,0-0.7892513,0.2888041-0.7892513,0.8980122v1.1912251h-0.225605v-3.158474h0.225605v1.3308506
	c0.1712255-0.3336315,0.4600296-0.4784002,0.8076229-0.4784002C11.5857067,12.9817076,11.9237471,13.3381195,11.9237471,13.8841286z
	 M14.6868601,13.0316782v2.256053h-0.2300138v-0.5100002c-0.1895971,0.3387747-0.5371904,0.5599709-0.9707642,0.5599709
	c-0.6400719,0-1.1684446-0.5100002-1.1684446-1.1779976s0.5283728-1.1779966,1.1684446-1.1779966
	c0.4335737,0,0.781167,0.2211952,0.9707642,0.5599709v-0.5100002H14.6868601z M14.4568462,14.1597042
	c0-0.5371904-0.4152021-0.9612103-0.9523926-0.9612103s-0.9568014,0.4240198-0.9568014,0.9612103
	s0.419611,0.9612112,0.9568014,0.9612112S14.4568462,14.6968946,14.4568462,14.1597042z M15.1395407,14.1597042
	c0-0.6679974,0.5055914-1.1779966,1.1868162-1.1779966c0.4423923,0,0.8215847,0.225605,0.9839916,0.5776081l-0.1851883,0.1087608
	c-0.130806-0.2843952-0.4379826-0.4695826-0.7988033-0.4695826c-0.5460091,0-0.9568014,0.4240198-0.9568014,0.9612103
	s0.4107924,0.9612112,0.9568014,0.9612112c0.3652306,0,0.6635876-0.1895971,0.8120308-0.4695826l0.1895981,0.1131706
	c-0.1800442,0.3475933-0.5592365,0.5731983-1.0016289,0.5731983C15.6451321,15.3377018,15.1395407,14.8277016,15.1395407,14.1597042
	z M19.1570778,15.2877312l-1.1956348-1.1103897v1.1103897h-0.225605v-3.158474h0.225605v1.9268303l1.1412544-1.0244093h0.3159943
	l-1.2140064,1.0824642l1.2595692,1.1735888H19.1570778z M20.8737354,12.3048916
	c0-0.0947981,0.0808353-0.1756344,0.1800442-0.1756344c0.0992069,0,0.1807766,0.0808363,0.1807766,0.1756344
	c0,0.0992069-0.0815697,0.1807775-0.1807766,0.1807775C20.9545708,12.4856691,20.8737354,12.4040985,20.8737354,12.3048916z
	 M20.9413433,13.0316782h0.225605v2.256053h-0.225605V13.0316782z M23.2929287,14.6968946
	c0,0.3696404-0.3248119,0.6408072-0.8076229,0.6408072c-0.45121,0-0.7488327-0.2123775-0.8575935-0.5011816l0.194006-0.1131697
	c0.0815716,0.2439766,0.3248138,0.3975649,0.6635876,0.3975649c0.3159943,0,0.5820179-0.1403608,0.5820179-0.4240208
	c0-0.6143513-1.3668594-0.2623482-1.3668594-1.0743809c0-0.3564119,0.3064423-0.6408062,0.76647-0.6408062
	c0.3659668,0,0.6459522,0.1763687,0.7672062,0.45121l-0.1895981,0.1087608
	c-0.0940628-0.2351589-0.3292217-0.3431845-0.5776081-0.3431845c-0.2932129,0-0.5408649,0.1535883-0.5408649,0.4240198
	C21.9260693,14.227313,23.2929287,13.8709002,23.2929287,14.6968946z M24.7972088,12.3048916
	c0-0.0947981,0.0808353-0.1756344,0.1800442-0.1756344c0.0992069,0,0.1807785,0.0808363,0.1807785,0.1756344
	c0,0.0992069-0.0815716,0.1807775-0.1807785,0.1807775C24.8780441,12.4856691,24.7972088,12.4040985,24.7972088,12.3048916z
	 M24.8648167,13.0316782h0.225605v2.256053h-0.225605V13.0316782z M27.604414,13.8841286v1.4036026h-0.2300148v-1.4036026
	c0-0.4152021-0.2388325-0.6856346-0.6635876-0.6856346c-0.4416561,0-0.7892513,0.2888041-0.7892513,0.8980122v1.1912251h-0.225605
	v-2.256053h0.225605v0.4284296c0.1712265-0.3336315,0.4600296-0.4784002,0.8076229-0.4784002
	C27.2663746,12.9817076,27.604414,13.3381195,27.604414,13.8841286z M29.7502365,13.2528744v1.4660664
	c0,0.3975649,0.2116432,0.4063835,0.6724072,0.3659658v0.2028246c-0.5915718,0.0903883-0.902422-0.0543804-0.902422-0.5687904
	v-1.4660664h-0.4967728v-0.2211962h0.4967728v-0.5643806l0.2300148-0.0676079v0.6319885h0.6724072v0.2211962H29.7502365z
	 M32.7830467,13.8841286v1.4036026h-0.2300148v-1.4036026c0-0.4152021-0.2388306-0.6856346-0.6635876-0.6856346
	c-0.4416561,0-0.7892513,0.2888041-0.7892513,0.8980122v1.1912251h-0.225605v-3.158474h0.225605v1.3308506
	c0.1712246-0.3336315,0.4600296-0.4784002,0.8076229-0.4784002C32.4450073,12.9817076,32.7830467,13.3381195,32.7830467,13.8841286z
	 M35.4601822,14.1685228c0,0.0360088-0.0044098,0.0720177-0.0044098,0.1080265h-2.0444107
	c0.0543785,0.5100002,0.4423904,0.8443661,0.9568024,0.8443661c0.3703728,0,0.6496239-0.1719599,0.7811661-0.4107924
	l0.1984138,0.1175785c-0.1851845,0.3064413-0.5371895,0.5100002-0.9839897,0.5100002
	c-0.6951866,0-1.1868172-0.4967718-1.1868172-1.1779976c0-0.6635876,0.4784012-1.1779966,1.1684456-1.1779966
	C35.0317497,12.9817076,35.4601822,13.5504971,35.4601822,14.1685228z M33.4113617,14.0560875h1.8143959
	c-0.0499725-0.5511522-0.4379845-0.8575935-0.8803749-0.8575935C33.8309708,13.198494,33.4569244,13.5549059,33.4113617,14.0560875z
	 M39.2308006,13.0316782v2.256053h-0.2300148v-0.5100002c-0.1895943,0.3387747-0.5371895,0.5599709-0.9707642,0.5599709
	c-0.6408043,0-1.1684418-0.5100002-1.1684418-1.1779976s0.5276375-1.1779966,1.1684418-1.1779966
	c0.4335747,0,0.7811699,0.2211952,0.9707642,0.5599709v-0.5100002H39.2308006z M39.0007858,14.1597042
	c0-0.5371904-0.4151993-0.9612103-0.9523926-0.9612103c-0.5371895,0-0.9567986,0.4240198-0.9567986,0.9612103
	s0.4196091,0.9612112,0.9567986,0.9612112C38.5855865,15.1209154,39.0007858,14.6968946,39.0007858,14.1597042z
	 M39.7687263,12.3048916c0-0.0947981,0.0808372-0.1756344,0.1800423-0.1756344c0.0992088,0,0.1807785,0.0808363,0.1807785,0.1756344
	c0,0.0992069-0.0815697,0.1807775-0.1807785,0.1807775C39.8495636,12.4856691,39.7687263,12.4040985,39.7687263,12.3048916z
	 M39.8363342,13.0316782h0.225605v2.256053h-0.225605V13.0316782z M41.6463203,13.0000792v0.2160521
	c-0.3880119,0-0.7532425,0.2395678-0.7532425,0.8171759v1.2544241h-0.225605v-2.256053h0.225605v0.4416571
	C41.0466652,13.1169233,41.3398781,13.0000792,41.6463203,13.0000792z"/>
</svg>
