<?xml version="1.0" encoding="utf-8"?>
<!-- Generator: Adobe Illustrator 23.0.0, SVG Export Plug-In . SVG Version: 6.00 Build 0)  -->
<svg version="1.1" id="Ebene_1" xmlns="http://www.w3.org/2000/svg" xmlns:xlink="http://www.w3.org/1999/xlink" x="0px" y="0px"
	 viewBox="0 0 79.4 15.3" style="enable-background:new 0 0 79.4 15.3;" xml:space="preserve">
<style type="text/css">
	.st0{fill:#FC8529;}
	.st1{fill:#009FE3;}
	.st2{fill:#FFFFFF;}
</style>
<path class="st0" d="M8.2,3.2L5.9,6.3H3.8l2.3-3.2L3.9,0H6L8.2,3.2z M2.2,3.2h2.1L2.1,6.3l2.3,3.2H2.3L0,6.3L2.2,3.2z"/>
<path class="st1" d="M79.4,9.5v2h-4.7v-2H79.4z"/>
<path class="st2" d="M16.5,5.3v4.1h-2V5.6c0-0.8-0.5-1.2-1.2-1.2c-0.7,0-1.3,0.4-1.3,1.4v3.7h-2V0h2v3.3c0.4-0.5,1-0.8,1.9-0.8
	C15.3,2.5,16.5,3.5,16.5,5.3z M24.8,2.7v6.8h-2V8.8c-0.4,0.5-1.1,0.8-2,0.8c-1.8,0-3.2-1.6-3.2-3.6s1.5-3.6,3.2-3.6
	c0.9,0,1.6,0.3,2,0.8V2.7H24.8z M22.8,6.1c0-1-0.7-1.6-1.6-1.6c-0.9,0-1.6,0.6-1.6,1.6c0,1,0.7,1.6,1.6,1.6
	C22.1,7.7,22.8,7.1,22.8,6.1z M26,6.1c0-2,1.5-3.6,3.6-3.6c1.3,0,2.5,0.7,3.1,1.7l-1.8,1c-0.2-0.5-0.7-0.8-1.3-0.8
	c-0.9,0-1.5,0.6-1.5,1.6s0.6,1.6,1.5,1.6c0.6,0,1.1-0.3,1.3-0.8l1.8,1C32,9,30.9,9.6,29.6,9.6C27.5,9.6,26,8.1,26,6.1z M37.6,9.5
	l-2.2-3v3h-2V0h2v5.7l2-3h2.4l-2.5,3.4l2.5,3.4H37.6z M50.1,2.7l-2.2,6.8h-1.9L45,5.8l-1.1,3.6H42l-2.2-6.8H42l1,3.6L44,2.7h1.9
	L47,6.3l1-3.6C47.9,2.7,50.1,2.7,50.1,2.7z M54.1,7.8c0.6,0,1-0.2,1.3-0.5L57,8.3c-0.7,0.9-1.7,1.4-2.9,1.4c-2.3,0-3.7-1.6-3.7-3.6
	s1.5-3.6,3.6-3.6c2,0,3.4,1.5,3.4,3.6c0,0.3,0,0.6-0.1,0.8h-4.8C52.7,7.6,53.3,7.8,54.1,7.8z M55.3,5.4c-0.2-0.8-0.8-1.1-1.4-1.1
	c-0.8,0-1.3,0.4-1.5,1.1H55.3z M61.9,7.8c0.6,0,1-0.2,1.3-0.5l1.6,0.9c-0.7,0.9-1.7,1.4-2.9,1.4c-2.3,0-3.7-1.6-3.7-3.6
	s1.5-3.6,3.6-3.6c2,0,3.4,1.5,3.4,3.6c0,0.3,0,0.6-0.1,0.8h-4.8C60.5,7.6,61.1,7.8,61.9,7.8z M63.1,5.4c-0.2-0.8-0.8-1.1-1.4-1.1
	c-0.8,0-1.3,0.4-1.5,1.1H63.1z M70.5,9.5l-2.2-3v3h-2V0h2v5.7l2-3h2.4l-2.5,3.4l2.5,3.4H70.5z M11.9,13.9v1.4h-0.2v-1.4
	c0-0.4-0.2-0.7-0.7-0.7c-0.4,0-0.8,0.3-0.8,0.9v1.2H10v-3.2h0.2v1.3c0.2-0.3,0.5-0.5,0.8-0.5C11.6,13,11.9,13.3,11.9,13.9z M14.7,13
	v2.3h-0.2v-0.5c-0.2,0.3-0.5,0.6-1,0.6c-0.6,0-1.2-0.5-1.2-1.2s0.5-1.2,1.2-1.2c0.4,0,0.8,0.2,1,0.6V13H14.7z M14.5,14.2
	c0-0.5-0.4-1-1-1s-1,0.4-1,1s0.4,1,1,1S14.5,14.7,14.5,14.2z M15.1,14.2c0-0.7,0.5-1.2,1.2-1.2c0.4,0,0.8,0.2,1,0.6l-0.2,0.1
	c-0.1-0.3-0.4-0.5-0.8-0.5c-0.5,0-1,0.4-1,1s0.4,1,1,1c0.4,0,0.7-0.2,0.8-0.5l0.2,0.1c-0.2,0.3-0.6,0.6-1,0.6
	C15.6,15.3,15.1,14.8,15.1,14.2z M19.2,15.3L18,14.2v1.1h-0.2v-3.2H18v1.9l1.1-1h0.3l-1.2,1.1l1.3,1.2H19.2z M20.9,12.3
	c0-0.1,0.1-0.2,0.2-0.2c0.1,0,0.2,0.1,0.2,0.2c0,0.1-0.1,0.2-0.2,0.2C21,12.5,20.9,12.4,20.9,12.3z M20.9,13h0.2v2.3h-0.2V13z
	 M23.3,14.7c0,0.4-0.3,0.6-0.8,0.6c-0.5,0-0.7-0.2-0.9-0.5l0.2-0.1c0.1,0.2,0.3,0.4,0.7,0.4c0.3,0,0.6-0.1,0.6-0.4
	c0-0.6-1.4-0.3-1.4-1.1c0-0.4,0.3-0.6,0.8-0.6c0.4,0,0.6,0.2,0.8,0.5L23,13.5c-0.1-0.2-0.3-0.3-0.6-0.3c-0.3,0-0.5,0.2-0.5,0.4
	C21.9,14.2,23.3,13.9,23.3,14.7z M24.8,12.3c0-0.1,0.1-0.2,0.2-0.2c0.1,0,0.2,0.1,0.2,0.2c0,0.1-0.1,0.2-0.2,0.2
	C24.9,12.5,24.8,12.4,24.8,12.3z M24.9,13h0.2v2.3h-0.2V13z M27.6,13.9v1.4h-0.2v-1.4c0-0.4-0.2-0.7-0.7-0.7c-0.4,0-0.8,0.3-0.8,0.9
	v1.2h-0.2V13h0.2v0.4c0.2-0.3,0.5-0.5,0.8-0.5C27.3,13,27.6,13.3,27.6,13.9z M29.8,13.3v1.5c0,0.4,0.2,0.4,0.7,0.4v0.2
	c-0.6,0.1-0.9-0.1-0.9-0.6v-1.5H29V13h0.5v-0.6l0.2-0.1V13h0.7v0.2H29.8z M32.8,13.9v1.4h-0.2v-1.4c0-0.4-0.2-0.7-0.7-0.7
	c-0.4,0-0.8,0.3-0.8,0.9v1.2h-0.2v-3.2h0.2v1.3c0.2-0.3,0.5-0.5,0.8-0.5C32.4,13,32.8,13.3,32.8,13.9z M35.5,14.2c0,0,0,0.1,0,0.1
	h-2c0.1,0.5,0.4,0.8,1,0.8c0.4,0,0.6-0.2,0.8-0.4l0.2,0.1c-0.2,0.3-0.5,0.5-1,0.5c-0.7,0-1.2-0.5-1.2-1.2c0-0.7,0.5-1.2,1.2-1.2
	C35,13,35.5,13.6,35.5,14.2z M33.4,14.1h1.8c0-0.6-0.4-0.9-0.9-0.9C33.8,13.2,33.5,13.6,33.4,14.1z M39.2,13v2.3H39v-0.5
	c-0.2,0.3-0.5,0.6-1,0.6c-0.6,0-1.2-0.5-1.2-1.2S37.4,13,38,13c0.4,0,0.8,0.2,1,0.6V13H39.2z M39,14.2c0-0.5-0.4-1-1-1
	c-0.5,0-1,0.4-1,1s0.4,1,1,1C38.6,15.1,39,14.7,39,14.2z M39.8,12.3c0-0.1,0.1-0.2,0.2-0.2c0.1,0,0.2,0.1,0.2,0.2
	c0,0.1-0.1,0.2-0.2,0.2C39.8,12.5,39.8,12.4,39.8,12.3z M39.8,13h0.2v2.3h-0.2V13z M41.6,13v0.2c-0.4,0-0.8,0.2-0.8,0.8v1.3h-0.2V13
	h0.2v0.4C41,13.1,41.3,13,41.6,13z"/>
</svg>
